HIERARCHY
ROOT joint_Root
{
	OFFSET 0.0 0.0 0.0
	CHANNELS 6 Xposition Yposition Zposition Zrotation Xrotation Yrotation 
	JOINT Hips
	{
		OFFSET -0.726466 93.3139 -2.00062
		CHANNELS 6 Xposition Yposition Zposition Zrotation Xrotation Yrotation 
		JOINT Spine
		{
			OFFSET 15.7357 0.0 0.0
			CHANNELS 6 Xposition Yposition Zposition Zrotation Xrotation Yrotation 
			JOINT Chest
			{
				OFFSET 8.98455 -0.406207 0.0
				CHANNELS 6 Xposition Yposition Zposition Zrotation Xrotation Yrotation 
				JOINT Neck
				{
					OFFSET 16.3773 0.0 0.0
					CHANNELS 6 Xposition Yposition Zposition Zrotation Xrotation Yrotation 
					JOINT Head
					{
						OFFSET 6.45672 0.0 0.0
						CHANNELS 6 Xposition Yposition Zposition Zrotation Xrotation Yrotation 
						End Site
						{
							OFFSET 0.0 0.0 0.0
						}
					}
				}
				JOINT Shoulder_L
				{
					OFFSET 12.9942 -0.242716 4.98039
					CHANNELS 6 Xposition Yposition Zposition Zrotation Xrotation Yrotation 
					JOINT UpperArm_L
					{
						OFFSET 5.34809 0.0 0.0
						CHANNELS 6 Xposition Yposition Zposition Zrotation Xrotation Yrotation 
						JOINT LowerArm_L
						{
							OFFSET 24.3286 1.87007e-05 0.0
							CHANNELS 6 Xposition Yposition Zposition Zrotation Xrotation Yrotation 
							JOINT Hand_L
							{
								OFFSET 22.2916 0.0 0.0
								CHANNELS 6 Xposition Yposition Zposition Zrotation Xrotation Yrotation 
								End Site
								{
									OFFSET 0.0 0.0 0.0
								}
							}
						}
					}
				}
				JOINT Shoulder_R
				{
					OFFSET 12.9945 -0.242716 -4.98039
					CHANNELS 6 Xposition Yposition Zposition Zrotation Xrotation Yrotation 
					JOINT UpperArm_R
					{
						OFFSET -5.34813 0.0 0.0
						CHANNELS 6 Xposition Yposition Zposition Zrotation Xrotation Yrotation 
						JOINT LowerArm_R
						{
							OFFSET -24.3289 0.000322201 0.0
							CHANNELS 6 Xposition Yposition Zposition Zrotation Xrotation Yrotation 
							JOINT Hand_R
							{
								OFFSET -22.2915 -0.000108084 0.0
								CHANNELS 6 Xposition Yposition Zposition Zrotation Xrotation Yrotation 
								End Site
								{
									OFFSET 0.0 0.0 0.0
								}
							}
						}
					}
				}
			}
		}
		JOINT UpperLeg_L
		{
			OFFSET -2.19248 -6.46944 0.0
			CHANNELS 6 Xposition Yposition Zposition Zrotation Xrotation Yrotation 
			JOINT LowerLeg_L
			{
				OFFSET 39.0811 0.0 -1.23785e-05
				CHANNELS 6 Xposition Yposition Zposition Zrotation Xrotation Yrotation 
				JOINT Foot_L
				{
					OFFSET 40.9854 0.0 -1.26872e-05
					CHANNELS 6 Xposition Yposition Zposition Zrotation Xrotation Yrotation 
					JOINT Toes_L
					{
						OFFSET 11.7543 0.0 0.0
						CHANNELS 6 Xposition Yposition Zposition Zrotation Xrotation Yrotation 
						End Site
						{
							OFFSET 0.0 0.0 0.0
						}
					}
				}
			}
		}
		JOINT UpperLeg_R
		{
			OFFSET -2.19251 6.46944 0.0
			CHANNELS 6 Xposition Yposition Zposition Zrotation Xrotation Yrotation 
			JOINT LowerLeg_R
			{
				OFFSET -39.0811 -0.00228153 -0.0401928
				CHANNELS 6 Xposition Yposition Zposition Zrotation Xrotation Yrotation 
				JOINT Foot_R
				{
					OFFSET -40.9854 0.0 0.0
					CHANNELS 6 Xposition Yposition Zposition Zrotation Xrotation Yrotation 
					JOINT Toes_R
					{
						OFFSET -11.7543 0.0 0.0
						CHANNELS 6 Xposition Yposition Zposition Zrotation Xrotation Yrotation 
						End Site
						{
							OFFSET 0.0 0.0 0.0
						}
					}
				}
			}
		}
	}
}
MOTION
Frames:	8
Frame Time:	0.0333333
0.000000 0.000000 0.000000 0.000000 0.000000 -0.000000 -0.794038 91.975100 0.958366 87.833600 -0.529982 1.812530 15.735700 0.000005 -0.000001 81.048500 86.082900 -80.440500 8.984550 -0.406207 -0.000000 -0.020193 -1.259960 1.215230 16.377300 -0.000001 -0.000001 2.114180 -2.128900 0.398664 6.456720 -0.000001 -0.000000 3.731540 -1.541940 -0.263038 12.994200 -0.242716 4.980390 -90.040200 0.122755 -71.868000 5.348090 -0.000007 -0.000001 -67.565800 37.388000 -13.838500 24.328600 0.000019 0.000005 3.471050 7.278520 -25.582400 22.291600 -0.000001 0.000005 2.639440 5.536600 -8.089280 12.994500 -0.242716 -4.980390 87.989500 5.819390 -70.903100 -5.348130 -0.000001 -0.000004 -65.750700 36.319300 -13.276800 -24.328900 0.000322 -0.000009 1.458070 3.274360 -24.035200 -22.291500 -0.000108 -0.000004 7.589180 5.542160 -8.341430 -2.192480 -6.469440 -0.000000 -169.087000 -17.824300 -3.100120 39.081100 -0.000007 -0.000012 -0.192907 0.489687 21.501700 40.985400 -0.000006 -0.000013 -7.407270 -1.662450 -64.277600 11.754300 -0.000000 0.000003 -0.000118 -0.001186 -16.622900 -2.192510 6.469440 -0.000001 173.990000 23.122800 179.792000 -39.081100 -0.002282 -0.040193 -0.050423 0.160979 18.463100 -40.985400 0.000008 0.000006 -4.503160 1.522430 -63.753300 -11.754300 -0.000006 -0.000006 -0.002340 -0.032898 -17.910900
0.000000 0.000000 0.000000 0.000000 0.000000 -0.000000 -0.787510 91.994000 0.900847 87.821700 -0.565353 1.748830 15.735700 0.000005 -0.000001 81.385900 86.090500 -80.782900 8.984550 -0.406207 -0.000000 -0.028531 -1.211820 1.205160 16.377300 -0.000001 -0.000001 1.821600 -2.030340 0.431329 6.456720 -0.000001 -0.000000 3.499140 -1.537670 -0.185648 12.994200 -0.242716 4.980390 -90.117900 0.354397 -71.597300 5.348090 -0.000007 -0.000001 -67.369100 35.331100 -13.333100 24.328600 0.000019 0.000005 3.812280 7.532690 -26.943900 22.291600 -0.000001 0.000005 2.687660 5.535940 -8.058960 12.994500 -0.242716 -4.980390 88.046500 5.648520 -70.887200 -5.348130 -0.000001 -0.000004 -65.901700 35.144100 -12.628400 -24.328900 0.000322 -0.000009 1.597080 3.423180 -25.044000 -22.291500 -0.000108 -0.000004 7.705620 5.540070 -8.245780 -2.192480 -6.469440 -0.000000 -169.103000 -17.948600 -3.159080 39.081100 -0.000007 -0.000012 -0.190811 0.486401 21.419900 40.985400 -0.000006 -0.000013 -7.376660 -1.620440 -64.189300 11.754300 -0.000000 0.000003 -0.000127 -0.001261 -16.625700 -2.192510 6.469440 -0.000001 174.078000 23.119600 179.667000 -39.081100 -0.002282 -0.040193 -0.045178 0.145449 18.441700 -40.985400 0.000008 0.000006 -4.287480 1.485580 -63.702700 -11.754300 -0.000006 -0.000006 -0.002298 -0.032390 -17.890200
0.000000 0.000000 0.000000 0.000000 0.000000 -0.000000 -0.784994 92.015900 0.820507 87.813100 -0.606782 1.620180 15.735700 0.000005 -0.000001 81.830600 86.137000 -81.239300 8.984550 -0.406207 -0.000000 -0.112279 -1.138240 1.180790 16.377300 -0.000001 -0.000001 1.540120 -1.944550 0.439698 6.456720 -0.000001 -0.000000 3.095810 -1.611590 -0.060116 12.994200 -0.242716 4.980390 -90.190700 0.561184 -71.236500 5.348090 -0.000007 -0.000001 -66.883500 32.550900 -12.859100 24.328600 0.000019 0.000005 4.130900 7.678810 -28.390600 22.291600 -0.000001 0.000005 2.715630 5.538780 -8.187260 12.994500 -0.242716 -4.980390 88.084300 5.508150 -70.788600 -5.348130 -0.000001 -0.000004 -65.858700 33.413200 -11.833400 -24.328900 0.000322 -0.000009 1.713820 3.487550 -26.204600 -22.291500 -0.000108 -0.000004 8.112580 5.537650 -8.136190 -2.192480 -6.469440 -0.000000 -169.158000 -17.970300 -3.290590 39.081100 -0.000007 -0.000012 -0.187764 0.481153 21.317800 40.985400 -0.000006 -0.000013 -7.363840 -1.675000 -64.094700 11.754300 -0.000000 0.000003 -0.000111 -0.001124 -16.620600 -2.192510 6.469440 -0.000001 174.194000 23.097500 179.469000 -39.081100 -0.002282 -0.040193 -0.040400 0.131382 18.407700 -40.985400 0.000008 0.000006 -4.052950 1.454100 -63.643400 -11.754300 -0.000006 -0.000006 -0.002531 -0.035179 -18.003600
0.000000 0.000000 0.000000 0.000000 0.000000 -0.000000 -0.781695 92.032800 0.767012 87.841400 -0.604840 1.572160 15.735700 0.000005 -0.000001 82.353400 86.155800 -81.789600 8.984550 -0.406207 -0.000000 -0.140428 -1.061690 1.125800 16.377300 -0.000001 -0.000001 1.126090 -1.921030 0.429926 6.456720 -0.000001 -0.000000 2.742820 -1.715630 0.028385 12.994200 -0.242716 4.980390 -90.234900 0.680813 -70.966100 5.348090 -0.000007 -0.000001 -65.932300 29.345700 -12.697300 24.328600 0.000019 0.000005 4.250310 7.546990 -29.503300 22.291600 -0.000001 0.000005 3.314820 5.538370 -8.167540 12.994500 -0.242716 -4.980390 88.136300 5.320860 -70.664300 -5.348130 -0.000001 -0.000004 -65.520000 31.201200 -11.251200 -24.328900 0.000322 -0.000009 1.854140 3.650090 -26.965800 -22.291500 -0.000108 -0.000004 8.779050 5.539210 -8.205710 -2.192480 -6.469440 -0.000000 -169.227000 -17.962600 -3.339270 39.081100 -0.000007 -0.000012 -0.184966 0.476433 21.218000 40.985400 -0.000006 -0.000013 -7.345570 -1.708410 -64.006700 11.754300 -0.000000 0.000003 -0.000114 -0.001154 -16.621700 -2.192510 6.469440 -0.000001 174.211000 23.101500 179.388000 -39.081100 -0.002282 -0.040193 -0.037970 0.124362 18.368700 -40.985400 0.000008 0.000006 -3.973000 1.450290 -63.588300 -11.754300 -0.000006 -0.000006 -0.002590 -0.035869 -18.031700
0.000000 0.000000 0.000000 0.000000 0.000000 -0.000000 -0.797417 92.048700 0.696238 87.825600 -0.564999 1.495630 15.735700 0.000005 -0.000001 82.596100 86.188700 -82.042000 8.984550 -0.406207 -0.000000 -0.201784 -1.020550 1.105910 16.377300 -0.000001 -0.000001 0.762494 -1.877650 0.381052 6.456720 -0.000001 -0.000000 2.205380 -1.776570 0.092166 12.994200 -0.242716 4.980390 -90.229600 0.657207 -70.742800 5.348090 -0.000007 -0.000001 -64.398700 26.085700 -13.071900 24.328600 0.000019 0.000005 4.033680 7.090460 -29.738500 22.291600 -0.000001 0.000005 4.166150 5.544060 -8.428710 12.994500 -0.242716 -4.980390 88.159900 5.201700 -70.488000 -5.348130 -0.000001 -0.000004 -64.479400 28.766200 -11.140300 -24.328900 0.000322 -0.000009 1.966590 3.841630 -27.147900 -22.291500 -0.000108 -0.000004 10.171200 5.539470 -8.225110 -2.192480 -6.469440 -0.000000 -169.247000 -17.901600 -3.451000 39.081100 -0.000007 -0.000012 -0.183006 0.473115 21.147200 40.985400 -0.000006 -0.000013 -7.340690 -1.723520 -63.918500 11.754300 -0.000000 0.000003 -0.000116 -0.001171 -16.622300 -2.192510 6.469440 -0.000001 174.313000 23.123600 179.263000 -39.081100 -0.002282 -0.040193 -0.035965 0.118620 18.326000 -40.985400 0.000008 0.000006 -3.919970 1.376790 -63.522400 -11.754300 -0.000006 -0.000006 -0.002583 -0.035794 -18.028700
0.000000 0.000000 0.000000 0.000000 0.000000 -0.000000 -0.821331 92.074400 0.611153 87.838900 -0.497720 1.442480 15.735700 0.000005 -0.000001 82.377400 86.225900 -81.838900 8.984550 -0.406207 -0.000000 -0.279312 -1.038820 1.073820 16.377300 -0.000001 -0.000001 0.388845 -1.831710 0.323721 6.456720 -0.000001 -0.000000 1.676180 -1.690510 0.129938 12.994200 -0.242716 4.980390 -90.216400 0.615375 -70.629100 5.348090 -0.000007 -0.000001 -62.378700 22.322300 -13.673300 24.328600 0.000019 0.000005 4.136510 7.335650 -29.527700 22.291600 -0.000001 0.000005 4.713660 5.546770 -8.553700 12.994500 -0.242716 -4.980390 88.162400 5.162250 -70.374800 -5.348130 -0.000001 -0.000004 -62.810500 25.799500 -11.507700 -24.328900 0.000322 -0.000009 1.938660 3.888950 -26.535200 -22.291500 -0.000108 -0.000004 12.177700 5.536620 -8.091460 -2.192480 -6.469440 -0.000000 -169.300000 -17.853100 -3.515830 39.081100 -0.000007 -0.000012 -0.179075 0.466550 20.998400 40.985400 -0.000006 -0.000013 -7.327400 -1.764740 -63.777800 11.754300 -0.000000 0.000003 -0.000118 -0.001186 -16.622900 -2.192510 6.469440 -0.000001 174.399000 23.131900 179.158000 -39.081100 -0.002282 -0.040193 -0.030144 0.101278 18.286600 -40.985400 0.000008 0.000006 -3.696030 1.259520 -63.472600 -11.754300 -0.000006 -0.000006 -0.002545 -0.035347 -18.010500
0.000000 0.000000 0.000000 0.000000 0.000000 -0.000000 -0.843100 92.081000 0.528823 87.819900 -0.395262 1.427830 15.735700 0.000005 -0.000001 82.036200 86.254900 -81.507300 8.984550 -0.406207 -0.000000 -0.342775 -1.074930 1.054050 16.377300 -0.000001 -0.000001 -0.032120 -1.813710 0.347334 6.456720 -0.000001 -0.000000 1.164390 -1.587770 0.109635 12.994200 -0.242716 4.980390 -90.143500 0.408756 -70.659600 5.348090 -0.000007 -0.000001 -60.205500 17.959700 -14.558600 24.328600 0.000019 0.000005 3.952130 7.326360 -28.446200 22.291600 -0.000001 0.000005 5.714880 5.550890 -8.747680 12.994500 -0.242716 -4.980390 88.153000 5.145690 -70.224500 -5.348130 -0.000001 -0.000004 -60.733100 21.863400 -12.330900 -24.328900 0.000322 -0.000009 1.665840 3.543750 -25.208300 -22.291500 -0.000108 -0.000004 13.743900 5.529410 -7.769380 -2.192480 -6.469440 -0.000000 -169.284000 -17.795700 -3.615820 39.081100 -0.000007 -0.000012 -0.178211 0.464334 20.997100 40.985400 -0.000006 -0.000013 -7.307720 -1.664540 -63.703700 11.754300 -0.000000 0.000003 -0.000120 -0.001203 -16.623500 -2.192510 6.469440 -0.000001 174.468000 23.173800 179.083000 -39.081100 -0.002282 -0.040193 -0.029896 0.100466 18.297300 -40.985400 0.000008 0.000006 -3.675230 1.197230 -63.438100 -11.754300 -0.000006 -0.000006 -0.002642 -0.036484 -18.056800
0.000000 0.000000 0.000000 0.000000 0.000000 -0.000000 -0.862197 92.089700 0.438822 87.834900 -0.327906 1.420040 15.735700 0.000005 -0.000001 81.582700 86.293800 -81.069300 8.984550 -0.406207 -0.000000 -0.428228 -1.121500 1.022070 16.377300 -0.000001 -0.000001 -0.445714 -1.779090 0.375269 6.456720 -0.000001 -0.000000 0.633375 -1.418300 0.163744 12.994200 -0.242716 4.980390 -90.027000 0.076978 -70.707200 5.348090 -0.000007 -0.000001 -58.043600 12.799500 -15.614900 24.328600 0.000019 0.000005 3.384410 6.688970 -26.915600 22.291600 -0.000001 0.000005 6.482990 5.548300 -8.627570 12.994500 -0.242716 -4.980390 88.168600 5.073510 -70.121500 -5.348130 -0.000001 -0.000004 -58.482300 16.717100 -13.520100 -24.328900 0.000322 -0.000009 1.309590 3.026920 -23.418900 -22.291500 -0.000108 -0.000004 14.132300 5.513680 -7.095300 -2.192480 -6.469440 -0.000000 -169.330000 -17.790200 -3.728310 39.081100 -0.000007 -0.000012 -0.177778 0.463041 21.003800 40.985400 -0.000006 -0.000013 -7.291550 -1.725500 -63.619000 11.754300 -0.000000 0.000003 -0.000114 -0.001151 -16.621600 -2.192510 6.469440 -0.000001 174.483000 23.174600 179.032000 -39.081100 -0.002282 -0.040193 -0.032256 0.107754 18.273300 -40.985400 0.000008 0.000006 -3.775520 1.141460 -63.377500 -11.754300 -0.000006 -0.000006 -0.002614 -0.036160 -18.043600
